<svg xmlns="http://www.w3.org/2000/svg" version="1.1" xmlns:xlink="http://www.w3.org/1999/xlink" xmlns:svgjs="http://svgjs.dev/svgjs" width="1000" height="999" viewBox="0 0 1000 999"><g transform="matrix(1,0,0,1,-0.215743440233382,-0.21552769679306039)"><svg viewBox="0 0 343 343" data-background-color="#ffffff" preserveAspectRatio="xMidYMid meet" height="999" width="1000" xmlns="http://www.w3.org/2000/svg" xmlns:xlink="http://www.w3.org/1999/xlink"><g id="tight-bounds" transform="matrix(1,0,0,1,0.0740000000000407,0.07400000000001228)"><svg viewBox="0 0 342.85155851775386 342.85155851775386" height="342.85155851775386" width="342.85155851775386"><g><svg></svg></g><g><svg viewBox="0 0 342.85155851775386 342.85155851775386" height="342.85155851775386" width="342.85155851775386"><g><path d="M0 171.426c0-94.676 76.75-171.426 171.426-171.426 94.676 0 171.426 76.75 171.426 171.426 0 94.676-76.75 171.426-171.426 171.426-94.676 0-171.426-76.75-171.426-171.426zM171.426 337.969c91.979 0 166.543-74.564 166.543-166.543 0-91.979-74.564-166.543-166.543-166.543-91.979 0-166.543 74.564-166.543 166.543 0 91.979 74.564 166.543 166.543 166.543z" data-fill-palette-color="tertiary" fill="#ed1703" stroke="transparent"></path><ellipse rx="164.56874808852186" ry="164.56874808852186" cx="171.42577925887693" cy="171.42577925887693" fill="#ed1703" stroke="transparent" stroke-width="0" fill-opacity="1" data-fill-palette-color="tertiary"></ellipse></g><g transform="matrix(1,0,0,1,64.84655864529837,144.35406038329205)"><svg viewBox="0 0 213.1584412271571 54.143437751169785" height="54.143437751169785" width="213.1584412271571"><g><svg viewBox="0 0 213.1584412271571 54.143437751169785" height="54.143437751169785" width="213.1584412271571"><g><svg viewBox="0 0 213.1584412271571 54.143437751169785" height="54.143437751169785" width="213.1584412271571"><g><svg viewBox="0 0 213.1584412271571 54.143437751169785" height="54.143437751169785" width="213.1584412271571"><g><svg viewBox="0 0 213.1584412271571 54.143437751169785" height="54.143437751169785" width="213.1584412271571"><g><svg viewBox="0 0 213.1584412271571 54.143437751169785" height="54.143437751169785" width="213.1584412271571"><g transform="matrix(1,0,0,1,0,0)"><svg width="213.1584412271571" viewBox="-1.5499999523162842 -37.54999923706055 151.36453247070312 38.45000076293945" height="54.143437751169785" data-palette-color="#ffffff"><path d="M28.4-24.1L28.45-21.45 26.25-19.95 20.2-5.25 17.95-0.15Q15.85 0.45 12.4 0.45L12.4 0.45Q10.35 0.45 8.95 0.2L8.95 0.2 1.7-19.1-1.55-21.3-1.55-24.1 10.7-24.1 14.4-12.2 15.1-8.9 15.65-8.9Q16.65-16.2 17.2-24.1L17.2-24.1 28.4-24.1ZM57.05-8.2L58.6-3.55 47.9 0.85 46.45 0.9Q39.95 0.9 35.97-1.65 32-4.2 30.3-8.08 28.6-11.95 28.6-16.2L28.6-16.2Q28.6-20.9 30.62-25.05 32.65-29.2 36.75-31.75 40.85-34.3 46.75-34.3L46.75-34.3Q52.8-34.3 57.65-31L57.65-31 57.7-30.15Q57.7-26.15 56.35-20.75L56.35-20.75 50.15-20.75 48.35-27.9Q45.85-28.8 42.85-29.1L42.85-29.1Q39-24.95 39-17.5L39-17.5Q39-12.25 41.4-8.9 43.8-5.55 48.3-5.5L48.3-5.5 57.05-8.2ZM86.05-5.5L86.2-3.25 79.05 0.85Q75.65 0.85 73.45-2.85L73.45-2.85 68.25 0.6 66.34 0.75Q63 0.75 60.75-1.23 58.5-3.2 58.5-5.85L58.5-5.85Q58.5-7.55 59.57-9.22 60.65-10.9 62.75-11.95L62.75-11.95 72.15-12.15 72.15-15.9Q72.15-19.6 69.9-20.8L69.9-20.8Q68.8-20.7 68.05-20.3L68.05-20.3 66.59-14.7 60.9-14.65Q60.05-17.55 60.05-20.25L60.05-20.25 60.25-22.7Q63.45-23.85 67.47-24.55 71.5-25.25 73.95-25.25L73.95-25.25Q78.8-25.25 81.59-21.55L81.59-21.55Q82.2-20.65 82.2-16.95L82.2-16.95 82.2-6.95Q82.2-5.4 83.4-5.4L83.4-5.4 85.05-5.45 86.05-5.5ZM68.3-6.6L68.3-6.6Q68.3-5.35 69.05-4.5L69.05-4.5 72.15-5.15 72.15-8.9Q68.3-8.9 68.3-6.6ZM111.79-20.8L105.54-13.15Q101.84-16.35 99.54-16.8L99.54-16.8 99.54-5Q103.04-3.75 105.09-2.45L105.09-2.45 105.04 0 85.79 0 85.74-1.75Q87.44-2.8 89.49-3.55L89.49-3.55 89.49-19.8 85.74-20.75 85.64-23.2Q90.44-24.9 96.59-25.15L96.59-25.15 99.54-20.75 103.04-24.85Q103.99-25.15 105.14-25.15L105.14-25.15Q107.39-25.15 109.29-23.98 111.19-22.8 111.79-20.8L111.79-20.8ZM140.89-5.5L141.04-3.25 133.84 0.85Q132.09 0.85 130.51-0.3 128.94-1.45 127.94-3.5L127.94-3.5 127.84-3.5 122.14 0.85Q117.29 0.9 114.19-2.68 111.09-6.25 111.09-11.7L111.09-11.7Q111.09-17.55 114.81-21.25 118.54-24.95 124.64-24.95L124.64-24.95 126.99-24.8 126.99-31.45 123.24-32.4 123.14-34.9Q127.89-36.55 134.09-36.85L134.09-36.85 137.04-34.15 137.04-6.95Q137.04-5.4 138.24-5.4L138.24-5.4 139.89-5.45 140.89-5.5ZM121.54-12.7L121.54-12.7Q121.54-9.9 122.66-8.05 123.79-6.2 125.84-6.2L125.84-6.2 126.99-6.35 126.99-19.45Q125.64-19.95 124.09-20.05L124.09-20.05Q121.54-17.6 121.54-12.7ZM145.09-22.5L139.74-24.5Q141.14-27.95 141.14-32.3L141.14-32.3 140.99-34.7 143.59-37.55 149.79-36.75Q149.99-33.75 148.56-29.45 147.14-25.15 145.09-22.5L145.09-22.5Z" opacity="1" transform="matrix(1,0,0,1,0,0)" fill="#ffffff" class="undefined-text-0" data-fill-palette-color="quaternary" id="text-0"></path></svg></g></svg></g></svg></g></svg></g><g></g></svg></g></svg></g></svg></g></svg></g><defs></defs></svg><rect width="342.85155851775386" height="342.85155851775386" fill="none" stroke="none" visibility="hidden"></rect></g></svg></g></svg>